<mxfile host="app.diagrams.net" modified="2024-05-12T22:07:37.745Z" agent="Mozilla/5.0 (Windows NT 10.0; Win64; x64) AppleWebKit/537.36 (KHTML, like Gecko) Chrome/124.0.0.0 Safari/537.36" etag="kWfnBpHbucEsctGixbqD" version="24.2.1" type="device">
  <diagram name="Page-1" id="dPObfEH6-QvwND58g5om">
    <mxGraphModel dx="1723" dy="765" grid="1" gridSize="10" guides="1" tooltips="1" connect="1" arrows="1" fold="1" page="1" pageScale="1" pageWidth="850" pageHeight="1100" math="0" shadow="0">
      <root>
        <mxCell id="0" />
        <mxCell id="1" parent="0" />
        <mxCell id="qNrOalULnD3xbl0b51hI-1" value="" style="rounded=0;whiteSpace=wrap;html=1;" vertex="1" parent="1">
          <mxGeometry x="190" y="150" width="520" height="520" as="geometry" />
        </mxCell>
        <mxCell id="qNrOalULnD3xbl0b51hI-2" value="&lt;font style=&quot;font-size: 48px;&quot;&gt;+&lt;/font&gt;" style="rounded=0;whiteSpace=wrap;html=1;" vertex="1" parent="1">
          <mxGeometry x="550" y="210" width="120" height="110" as="geometry" />
        </mxCell>
        <mxCell id="qNrOalULnD3xbl0b51hI-3" value="List of current projects" style="rounded=0;whiteSpace=wrap;html=1;" vertex="1" parent="1">
          <mxGeometry x="230" y="210" width="310" height="110" as="geometry" />
        </mxCell>
        <mxCell id="qNrOalULnD3xbl0b51hI-5" value="&lt;font style=&quot;font-size: 24px;&quot;&gt;Current Projects&lt;/font&gt;" style="text;html=1;align=center;verticalAlign=middle;whiteSpace=wrap;rounded=0;" vertex="1" parent="1">
          <mxGeometry x="230" y="170" width="190" height="30" as="geometry" />
        </mxCell>
        <mxCell id="qNrOalULnD3xbl0b51hI-6" value="&lt;font style=&quot;font-size: 24px;&quot;&gt;Selected Project (%)&lt;/font&gt;" style="text;html=1;align=center;verticalAlign=middle;whiteSpace=wrap;rounded=0;" vertex="1" parent="1">
          <mxGeometry x="230" y="390" width="230" height="30" as="geometry" />
        </mxCell>
        <mxCell id="qNrOalULnD3xbl0b51hI-7" value="List of current tasks for the project" style="rounded=0;whiteSpace=wrap;html=1;" vertex="1" parent="1">
          <mxGeometry x="240" y="430" width="360" height="190" as="geometry" />
        </mxCell>
        <mxCell id="qNrOalULnD3xbl0b51hI-8" value="Check boxes" style="rounded=0;whiteSpace=wrap;html=1;" vertex="1" parent="1">
          <mxGeometry x="610" y="430" width="60" height="190" as="geometry" />
        </mxCell>
        <mxCell id="qNrOalULnD3xbl0b51hI-11" value="Add new task" style="rounded=0;whiteSpace=wrap;html=1;" vertex="1" parent="1">
          <mxGeometry x="470" y="395" width="200" height="20" as="geometry" />
        </mxCell>
        <mxCell id="qNrOalULnD3xbl0b51hI-12" value="Input fields appear after + is clicked for new project" style="rounded=0;whiteSpace=wrap;html=1;" vertex="1" parent="1">
          <mxGeometry x="230" y="340" width="440" height="40" as="geometry" />
        </mxCell>
        <mxCell id="qNrOalULnD3xbl0b51hI-14" value="Progress Bar" style="ellipse;whiteSpace=wrap;html=1;" vertex="1" parent="1">
          <mxGeometry x="240" y="630" width="430" height="20" as="geometry" />
        </mxCell>
      </root>
    </mxGraphModel>
  </diagram>
</mxfile>
